# xmcd
#
# Track frame offsets: 
#        182
#        11900
#        23202
#        37322
#        48520
#        60645
#        75702
#        89490
#        106067
#        118415
#        130070
#        144235
#        156600
#        170545
#        182750
#        197192
#        210637
#        225957
#
# Disc length: 3194 seconds
#
# Revision: 4
# Processed by: cddbd v1.5.2PL0 Copyright (c) Steve Scherf et al.
# Submitted via: ExactAudioCopy v0.99pb4
#
DISCID=000c7812
DTITLE=Jane Birkin - Ballade de Johnny-Jane
DYEAR=1992
DGENRE=Chanson
TTITLE0=My Chérie Jane
TTITLE1=Bébé Gai
TTITLE2=Lolita Go Home
TTITLE3=What Is This Thing Called Love?
TTITLE4=Bébé Song
TTITLE5=Where Or When
TTITLE6=Sa Ca Peut Te Consoller
TTITLE7=Love For Sale
TTITLE8=Just Me And You
TTITLE9=La Fille Aux Claquettes
TTITLE10=Rien Pour Rien
TTITLE11=French Graffiti
TTITLE12=There's A Small Hotel
TTITLE13=Ballade De Johnny-Jane
TTITLE14=Raccrochez C'est Une Horreur
TTITLE15=Yesterday Yes A Day (Ext. De La B.O.F. Madame Claude)
TTITLE16=Mister Iceberg (Version Anglaise)
TTITLE17=Ex-fan Des Sixties (Version Anglaise)
EXTD=YEAR: 1992
EXTT0=
EXTT1=
EXTT2=
EXTT3=
EXTT4=
EXTT5=
EXTT6=
EXTT7=
EXTT8=
EXTT9=
EXTT10=
EXTT11=
EXTT12=
EXTT13=
EXTT14=
EXTT15=
EXTT16=
EXTT17=
PLAYORDER=
